<svg xmlns="http://www.w3.org/2000/svg" xmlns:v="https://svgstorm.com"
viewBox = "0 0 1080 1032"
width="1080"
height="1032">
<g fill="None" fill-opacity="0.0" stroke="#3F4EDC" stroke-opacity="0.00" stroke-width="0.3"><path d="
M 0.00 1032.00 
L 1080.00 1032.00
L 1080.00 0.00
L 0.00 0.00
L 0.00 1032.00
M 605.00 2.00 
C 606.61 2.22 608.16 2.86 610.00 3.00
C 632.53 4.66 657.93 15.30 675.25 29.75 C 692.56 44.21 710.34 55.50 726.00 71.00
C 746.57 91.38 773.60 106.32 796.23 124.77 C 818.86 143.22 843.99 159.75 866.68 179.32 C 889.37 198.89 913.78 212.84 937.70 233.30 C 961.61 253.77 983.68 265.68 1003.25 292.75 C 1022.82 319.82 1029.63 356.67 1025.02 392.02 C 1020.42 427.38 1013.85 463.90 1010.00 500.00 C 1006.16 536.10 999.90 571.25 995.01 606.01 C 990.11 640.77 984.55 680.43 981.00 715.00
C 979.91 725.64 978.73 735.35 977.00 745.00
C 977.87 763.12 971.91 782.14 967.00 799.00
C 961.14 819.14 947.74 834.30 932.30 848.30 C 916.87 862.31 898.74 873.36 878.77 879.77 C 858.80 886.18 839.63 897.92 819.93 904.93 C 800.23 911.94 780.38 925.66 760.00 928.00
C 732.68 934.46 708.78 950.63 682.00 958.00
C 662.25 965.56 643.72 978.33 622.98 983.98 C 602.23 989.63 585.69 1002.32 564.77 1008.77 C 543.85 1015.23 524.97 1025.79 502.00 1028.00
C 502.74 1025.80 506.33 1028.31 507.00 1026.00
C 469.30 1030.67 430.99 1018.50 402.75 996.25 C 374.52 973.99 353.03 955.92 324.00 937.00
C 307.34 926.14 292.94 910.97 276.92 900.08 C 260.89 889.20 246.11 876.80 230.25 864.75 C 214.40 852.70 198.96 840.03 184.00 827.00
C 165.20 813.02 147.35 798.58 128.92 784.08 C 110.48 769.58 90.00 757.82 76.00 739.00
C 66.08 731.09 60.94 719.01 59.00 706.00
C 47.46 676.60 54.39 648.69 55.00 618.00
C 55.49 593.62 59.59 562.65 66.00 539.00
C 69.95 489.21 81.00 440.30 87.00 391.00 C 92.99 341.69 98.97 295.50 107.00 248.00
C 111.47 221.56 125.36 198.81 145.25 180.25 C 165.13 161.69 190.78 154.07 215.22 143.22 C 239.67 132.38 267.10 124.99 291.69 113.69 C 316.29 102.40 341.25 91.54 366.68 81.68 C 392.11 71.82 416.68 61.26 442.07 51.07 C 467.47 40.88 492.07 29.68 518.08 20.08 C 544.08 10.47 575.38 -5.70 605.00 2.00 Z"/>
</g>
<g fill="None" fill-opacity="0.0" stroke="#3F4EDC" stroke-opacity="0.58" stroke-width="0.3"><path d="
M 107.00 248.00 
C 111.79 232.21 118.42 212.62 129.92 199.92 C 141.42 187.22 151.18 174.33 167.23 166.23 C 183.28 158.13 201.28 154.06 217.03 145.03 C 232.77 135.99 248.80 134.07 264.68 125.68 C 280.56 117.29 300.95 113.35 316.00 105.00 C 331.05 96.65 351.39 95.95 365.75 85.75 C 380.10 75.54 400.45 75.02 415.03 66.03 C 429.62 57.04 447.11 49.96 464.02 44.02 C 480.94 38.09 499.40 31.63 514.00 24.00
C 518.66 21.57 524.17 20.31 529.00 18.00
C 538.02 11.69 553.99 6.13 565.22 4.22 C 576.46 2.31 592.06 0.27 605.00 2.00
C 575.38 -5.70 544.08 10.47 518.08 20.08 C 492.07 29.68 467.47 40.88 442.07 51.07 C 416.68 61.26 392.11 71.82 366.68 81.68 C 341.25 91.54 316.29 102.40 291.69 113.69 C 267.10 124.99 239.67 132.38 215.22 143.22 C 190.78 154.07 165.13 161.69 145.25 180.25 C 125.36 198.81 111.47 221.56 107.00 248.00 Z"/>
</g>
<g fill="None" fill-opacity="0.0" stroke="#3F4EDC" stroke-opacity="0.99" stroke-width="0.3"><path d="
M 529.00 18.00 
C 524.29 21.30 518.48 22.71 514.00 24.00
C 499.40 31.63 480.94 38.09 464.02 44.02 C 447.11 49.96 429.62 57.04 415.03 66.03 C 400.45 75.02 380.10 75.54 365.75 85.75 C 351.39 95.95 331.05 96.65 316.00 105.00 C 300.95 113.35 280.56 117.29 264.68 125.68 C 248.80 134.07 232.77 135.99 217.03 145.03 C 201.28 154.06 183.28 158.13 167.23 166.23 C 151.18 174.33 141.42 187.22 129.92 199.92 C 118.42 212.62 111.79 232.21 107.00 248.00
C 98.97 295.50 92.99 341.69 87.00 391.00 C 81.00 440.30 69.95 489.21 66.00 539.00
C 63.87 565.87 58.69 592.17 55.00 618.00
C 54.39 648.69 47.46 676.60 59.00 706.00
C 63.32 717.00 68.73 729.22 76.00 739.00
C 90.00 757.82 110.48 769.58 128.92 784.08 C 147.35 798.58 165.20 813.02 184.00 827.00
C 209.00 845.60 230.98 863.51 256.22 879.78 C 281.47 896.04 303.41 917.78 324.00 937.00
C 353.03 955.92 374.52 973.99 402.75 996.25 C 430.99 1018.50 469.30 1030.67 507.00 1026.00
C 527.71 1023.43 548.27 1013.45 567.07 1005.07 C 585.87 996.69 604.02 986.83 624.00 982.00 C 643.98 977.17 661.95 963.51 682.00 958.00
C 708.78 950.63 732.68 934.46 760.00 928.00
C 779.79 923.32 797.99 908.10 818.22 902.22 C 838.45 896.35 858.02 884.22 878.02 878.02 C 898.03 871.83 915.55 860.29 931.25 847.25 C 946.95 834.20 959.25 817.81 967.00 799.00
C 971.91 782.14 977.87 763.12 977.00 745.00
C 976.75 739.83 976.67 734.48 978.33 729.33 C 979.99 724.18 979.78 718.99 981.00 715.00
C 984.55 680.43 990.11 640.77 995.01 606.01 C 999.90 571.25 1006.16 536.10 1010.00 500.00 C 1013.85 463.90 1020.42 427.38 1025.02 392.02 C 1029.63 356.67 1022.82 319.82 1003.25 292.75 C 983.68 265.68 961.61 253.77 937.70 233.30 C 913.78 212.84 889.37 198.89 866.68 179.32 C 843.99 159.75 818.86 143.22 796.23 124.77 C 773.60 106.32 746.57 91.38 726.00 71.00
C 688.79 43.88 655.20 12.28 610.00 3.00
C 608.16 2.86 606.61 2.22 605.00 2.00
C 592.06 0.27 576.46 2.31 565.22 4.22 C 553.99 6.13 538.02 11.69 529.00 18.00
M 669.00 135.00 
C 669.23 135.35 669.00 136.00 669.00 136.00
C 669.47 142.96 667.36 150.69 666.00 155.00
C 664.04 153.55 665.44 150.20 665.00 148.00
C 661.90 164.37 663.46 181.92 659.02 198.02 C 654.59 214.13 654.51 231.18 654.00 248.00
C 653.78 255.14 650.84 260.46 651.00 267.00
C 651.38 282.24 641.49 288.94 627.00 288.00
C 626.26 295.88 615.49 290.36 616.00 298.00
C 608.25 296.30 600.37 302.18 592.00 304.00
C 599.29 305.43 591.19 307.44 588.00 306.00
C 586.69 308.19 584.48 308.05 586.00 311.00
C 579.78 310.48 574.65 313.45 568.00 313.00
C 567.01 316.33 573.58 313.66 571.00 317.00
C 563.85 319.82 555.72 322.48 546.78 322.78 C 537.84 323.07 535.82 333.71 525.00 332.00
C 526.75 338.60 510.18 334.62 515.00 340.00
C 508.63 339.47 502.80 342.46 497.00 341.00
C 487.50 343.00 481.21 349.90 471.00 350.00
C 466.82 355.45 459.63 356.46 452.97 358.97 C 446.31 361.49 438.34 364.31 431.00 365.00
C 424.99 374.27 411.88 374.38 402.00 380.00 C 392.11 385.62 379.93 388.31 369.97 392.97 C 360.01 397.62 348.10 401.74 337.98 403.98 C 327.85 406.21 318.12 415.99 308.00 419.00
C 308.71 418.52 300.43 425.16 300.00 428.00
C 295.85 425.73 291.76 430.49 288.00 428.00
C 270.73 427.09 255.65 444.22 238.00 444.00
C 233.02 448.23 224.95 452.45 216.75 454.75 C 208.56 457.06 201.88 462.14 194.92 465.92 C 187.96 469.70 177.14 468.63 170.30 474.31 C 163.47 479.98 149.77 474.17 150.01 464.99 C 150.25 455.81 148.99 441.77 150.60 433.26 C 152.20 424.74 154.27 416.93 154.00 407.00 C 153.73 397.07 159.05 391.15 160.00 382.00 C 160.95 372.85 159.57 361.58 163.00 353.00 C 166.43 344.42 162.14 331.06 165.99 322.99 C 169.85 314.92 169.50 303.03 170.00 294.00 C 170.50 284.97 174.05 276.03 174.00 267.00 C 173.95 257.97 179.66 250.84 184.30 244.30 C 188.95 237.77 196.17 235.35 199.77 228.77 C 203.37 222.19 215.38 221.36 221.08 217.08 C 226.78 212.80 238.67 211.00 245.00 210.00
C 251.88 200.82 265.56 199.75 275.67 194.67 C 285.78 189.60 296.93 185.55 308.00 181.00
C 309.57 180.50 311.79 179.33 314.00 180.00
C 323.44 169.54 342.69 167.46 355.00 162.00
C 368.72 159.55 385.46 154.37 397.00 147.00
C 395.10 147.60 392.46 146.95 390.00 148.00
C 393.21 141.99 407.47 144.49 406.00 136.00
C 410.16 140.70 415.65 134.28 421.00 137.00
C 431.79 137.29 442.24 127.71 453.08 123.08 C 463.92 118.46 478.69 117.18 488.75 109.75 C 498.80 102.31 511.68 100.96 523.03 98.02 C 534.37 95.08 543.94 84.95 554.77 81.43 C 565.59 77.90 577.47 70.18 590.00 70.00 C 602.53 69.82 618.61 74.20 628.08 80.92 C 637.55 87.64 645.27 96.67 654.70 102.30 C 664.12 107.94 677.36 123.66 669.00 135.00
M 941.00 496.00 
C 941.49 501.04 942.09 509.93 941.20 514.25 C 940.30 518.57 943.99 526.00 937.00 526.00
C 937.00 532.00 937.00 538.00 937.00 544.00
C 935.71 543.56 934.79 542.42 935.00 541.00
C 930.40 556.16 931.56 573.21 928.00 589.00
C 928.80 594.89 927.68 606.95 926.80 615.25 C 925.92 623.54 923.35 635.92 922.40 643.74 C 921.45 651.57 923.06 663.46 918.00 666.00
C 919.13 682.99 914.95 699.00 912.00 714.00
C 909.10 726.06 906.57 738.92 907.00 752.00 C 907.43 765.08 901.20 776.48 894.90 785.90 C 888.60 795.31 880.23 800.97 869.99 805.99 C 859.75 811.02 847.80 813.72 837.75 819.75 C 827.71 825.78 815.54 826.58 807.75 817.25 C 799.97 807.91 792.06 803.19 782.77 796.23 C 773.48 789.27 766.13 784.36 756.92 777.08 C 747.70 769.81 739.70 764.44 730.77 757.23 C 721.84 750.02 714.13 742.54 704.00 738.00
C 704.64 727.65 691.74 724.77 685.97 719.03 C 680.20 713.28 671.76 710.67 665.00 705.00
C 665.12 690.33 667.97 676.20 670.00 662.00 C 672.03 647.80 673.67 632.48 675.33 618.33 C 676.99 604.18 681.39 590.95 682.00 577.00 C 682.61 563.05 684.60 549.13 686.99 534.99 C 689.39 520.85 689.25 506.62 692.78 492.78 C 696.31 478.93 695.63 463.66 697.20 449.75 C 698.77 435.85 701.84 422.19 703.00 408.00 C 704.16 393.81 706.87 379.08 709.00 365.00 C 711.13 350.91 713.81 336.07 713.33 321.33 C 712.85 306.59 720.47 294.43 720.99 279.99 C 721.51 265.55 723.87 250.07 724.93 235.93 C 725.98 221.79 731.25 210.13 731.00 195.00 C 730.75 179.87 742.70 170.76 753.08 181.92 C 763.47 193.07 770.56 193.63 780.74 202.26 C 790.93 210.89 800.08 215.25 807.90 224.10 C 815.73 232.95 825.80 236.61 834.75 245.25 C 843.70 253.88 854.72 257.62 863.25 265.75 C 871.78 273.87 880.90 280.11 889.70 287.30 C 898.50 294.49 908.19 301.71 916.77 309.23 C 925.35 316.76 936.31 320.93 943.70 330.30 C 951.10 339.67 956.06 353.28 956.78 366.22 C 957.50 379.16 951.36 394.22 951.22 408.22 C 951.08 422.22 946.37 436.81 945.01 451.01 C 943.65 465.21 943.62 481.89 941.00 496.00
M 611.00 545.00 
C 611.00 562.79 606.32 579.41 604.02 597.02 C 601.73 614.64 601.98 631.34 596.00 648.00
C 592.74 648.61 590.09 647.16 587.00 647.00
C 580.97 637.11 566.03 633.46 561.00 623.00
C 551.86 622.04 548.67 611.66 541.75 607.25 C 534.84 602.83 529.04 596.95 522.00 592.00
C 513.97 584.35 502.68 576.90 495.00 568.00
C 484.23 565.25 472.94 555.36 463.75 547.25 C 454.56 539.13 440.67 532.91 432.78 524.22 C 424.88 515.54 411.28 507.35 402.77 500.23 C 394.26 493.11 374.43 483.56 378.00 471.00 C 381.57 458.44 401.52 457.16 412.22 451.22 C 422.92 445.28 438.21 440.55 450.22 435.22 C 462.24 429.90 475.64 424.28 488.22 419.22 C 500.81 414.17 515.71 411.60 528.00 405.00
C 534.40 401.80 541.30 399.77 548.00 396.00
C 567.54 385.00 591.93 377.32 612.00 370.00
C 616.11 368.50 618.30 366.36 623.00 366.00
C 625.65 365.80 628.34 366.15 631.00 366.00
C 636.90 386.24 625.04 403.98 625.00 424.00 C 624.97 444.02 620.59 465.17 618.00 485.00 C 615.41 504.83 613.86 525.32 611.00 545.00
M 218.00 462.00 
C 215.38 460.29 212.34 464.39 210.00 461.00
C 209.50 462.96 206.50 463.90 208.00 466.00
C 205.05 465.89 201.16 466.85 201.00 464.00
C 199.68 462.14 200.05 468.43 197.00 467.00
C 197.39 460.29 204.80 463.34 208.23 460.23 C 211.66 457.12 217.65 458.11 218.00 462.00
M 318.00 526.00 
C 318.05 522.12 326.77 529.67 329.70 531.31 C 332.62 532.94 336.62 539.80 340.77 541.23 C 344.92 542.67 348.10 548.73 350.00 551.00
C 366.37 563.80 382.48 578.80 400.00 589.00
C 397.97 594.58 408.87 592.36 408.00 599.00
C 413.70 599.45 418.86 604.84 424.23 608.77 C 429.60 612.70 433.73 618.50 438.00 623.00
C 447.71 626.86 458.52 635.94 468.89 643.11 C 479.27 650.27 489.33 658.49 499.25 666.75 C 509.16 675.02 518.12 681.23 528.75 689.25 C 539.38 697.27 547.70 704.97 558.25 712.75 C 568.80 720.54 578.01 729.34 588.10 736.90 C 598.19 744.46 608.58 752.17 618.75 760.25 C 628.91 768.34 639.00 775.03 648.75 783.25 C 658.50 791.47 669.62 798.20 679.25 806.75 C 688.88 815.30 700.34 821.58 710.08 829.92 C 719.82 838.26 730.19 846.01 739.00 855.00
C 728.54 868.11 710.82 869.50 695.78 875.78 C 680.74 882.06 665.13 888.97 649.75 894.75 C 634.38 900.54 620.36 908.27 604.77 913.77 C 589.18 919.27 573.85 927.04 558.33 932.33 C 542.81 937.62 528.31 947.05 513.00 952.00
C 495.74 958.69 474.14 960.98 456.00 952.00
C 453.32 945.48 443.79 942.24 440.00 935.00
C 432.31 927.31 418.89 923.08 411.25 913.75 C 403.61 904.43 391.12 900.73 382.31 892.69 C 373.49 884.66 364.45 875.98 354.08 869.92 C 343.71 863.85 334.89 855.32 326.10 847.90 C 317.31 840.48 307.16 833.92 297.77 826.23 C 288.38 818.55 277.09 811.95 268.30 804.70 C 259.51 797.44 250.32 788.91 240.75 782.25 C 231.18 775.59 221.46 768.34 212.70 760.30 C 203.93 752.27 192.81 746.38 183.75 738.25 C 174.70 730.11 165.02 723.53 155.70 716.30 C 146.39 709.06 135.22 704.18 130.08 691.92 C 124.94 679.66 118.51 665.17 122.32 651.32 C 126.13 637.47 125.70 624.45 128.93 609.93 C 132.15 595.41 130.16 579.13 135.00 565.00
C 150.39 558.83 164.75 550.55 180.08 544.08 C 195.41 537.61 213.50 533.02 229.22 526.22 C 244.94 519.42 259.06 514.01 275.74 506.74 C 292.43 499.48 305.51 516.70 318.00 526.00 Z"/>
</g>
<g fill="None" fill-opacity="0.0" stroke="#3F4EDC" stroke-opacity="0.56" stroke-width="0.3"><path d="
M 726.00 71.00 
C 710.34 55.50 692.56 44.21 675.25 29.75 C 657.93 15.30 632.53 4.66 610.00 3.00
C 655.20 12.28 688.79 43.88 726.00 71.00 Z"/>
</g>
<g fill="None" fill-opacity="0.0" stroke="#3F4EDC" stroke-opacity="0.82" stroke-width="0.3"><path d="
M 514.00 24.00 
C 518.48 22.71 524.29 21.30 529.00 18.00
C 524.17 20.31 518.66 21.57 514.00 24.00 Z"/>
</g>
<g fill="None" fill-opacity="0.0" stroke="#3F4EDC" stroke-opacity="0.51" stroke-width="0.3"><path d="
M 421.00 137.00 
C 416.52 137.97 412.19 140.45 408.00 142.00
C 422.34 138.98 437.89 134.67 450.22 127.22 C 462.55 119.77 477.23 120.04 490.02 112.02 C 502.82 104.01 517.46 104.37 531.08 97.08 C 544.69 89.79 555.07 85.60 567.74 78.74 C 580.41 71.88 598.79 71.57 614.00 75.00
C 615.21 80.25 620.60 78.33 625.00 79.00
C 632.65 88.28 644.40 94.40 653.00 103.00
C 655.74 105.82 657.97 109.22 663.00 109.00
C 662.93 111.52 664.08 113.73 665.00 116.00
C 669.39 122.40 668.76 125.37 668.00 133.00
C 668.19 134.58 668.29 133.93 669.00 135.00
C 677.36 123.66 664.12 107.94 654.70 102.30 C 645.27 96.67 637.55 87.64 628.08 80.92 C 618.61 74.20 602.53 69.82 590.00 70.00 C 577.47 70.18 565.59 77.90 554.77 81.43 C 543.94 84.95 534.37 95.08 523.03 98.02 C 511.68 100.96 498.80 102.31 488.75 109.75 C 478.69 117.18 463.92 118.46 453.08 123.08 C 442.24 127.71 431.79 137.29 421.00 137.00 Z"/>
</g>
<g fill="None" fill-opacity="0.0" stroke="#3F4EDC" stroke-opacity="0.01" stroke-width="0.3"><path d="
M 408.00 142.00 
C 404.09 142.82 400.44 144.80 397.00 147.00
C 385.46 154.37 368.72 159.55 355.00 162.00
C 348.31 165.02 343.03 169.93 335.78 171.78 C 328.53 173.63 318.59 174.57 314.00 181.00
C 312.00 181.00 310.00 181.00 308.00 181.00
C 296.93 185.55 285.78 189.60 275.67 194.67 C 265.56 199.75 251.88 200.82 245.00 210.00
C 238.67 211.00 226.78 212.80 221.08 217.08 C 215.38 221.36 203.37 222.19 199.77 228.77 C 196.17 235.35 188.95 237.77 184.30 244.30 C 179.66 250.84 173.95 257.97 174.00 267.00 C 174.05 276.03 170.50 284.97 170.00 294.00 C 169.50 303.03 169.85 314.92 165.99 322.99 C 162.14 331.06 166.43 344.42 163.00 353.00 C 159.57 361.58 160.95 372.85 160.00 382.00 C 159.05 391.15 153.73 397.07 154.00 407.00 C 154.27 416.93 152.20 424.74 150.60 433.26 C 148.99 441.77 150.25 455.81 150.01 464.99 C 149.77 474.17 163.47 479.98 170.30 474.31 C 177.14 468.63 187.96 469.70 194.92 465.92 C 201.88 462.14 208.56 457.06 216.75 454.75 C 224.95 452.45 233.02 448.23 238.00 444.00
C 255.65 444.22 270.73 427.09 288.00 428.00
C 295.67 427.03 300.60 421.28 308.00 419.00
C 318.12 415.99 327.85 406.21 337.98 403.98 C 348.10 401.74 360.01 397.62 369.97 392.97 C 379.93 388.31 392.11 385.62 402.00 380.00 C 411.88 374.38 424.99 374.27 431.00 365.00
C 438.34 364.31 446.31 361.49 452.97 358.97 C 459.63 356.46 466.82 355.45 471.00 350.00
C 481.21 349.90 487.50 343.00 497.00 341.00
C 514.05 337.41 528.32 322.87 546.00 321.00
C 554.23 316.88 561.30 309.68 571.00 311.00
C 576.69 305.53 585.98 300.66 595.00 301.00
C 601.45 293.59 614.90 293.21 623.67 287.67 C 632.45 282.14 641.97 281.05 649.00 273.00
C 649.24 264.46 649.13 254.63 654.00 248.00
C 654.51 231.18 654.59 214.13 659.02 198.02 C 663.46 181.92 661.90 164.37 665.00 148.00
C 665.80 143.77 666.44 138.93 669.00 136.00
C 669.00 136.00 669.23 135.35 669.00 135.00
C 668.29 133.93 668.19 134.58 668.00 133.00
C 667.27 127.09 670.05 121.47 665.00 118.00
C 664.16 116.91 661.63 115.94 663.00 113.00
C 657.43 115.92 659.97 106.87 654.00 109.00
C 653.66 103.94 649.83 103.29 645.00 103.00
C 646.15 99.55 642.43 99.49 641.00 98.00
C 646.76 96.38 648.34 102.78 653.00 103.00
C 644.40 94.40 632.65 88.28 625.00 79.00
C 620.60 78.33 615.21 80.25 614.00 75.00
C 598.79 71.57 580.41 71.88 567.74 78.74 C 555.07 85.60 544.69 89.79 531.08 97.08 C 517.46 104.37 502.82 104.01 490.02 112.02 C 477.23 120.04 462.55 119.77 450.22 127.22 C 437.89 134.67 422.34 138.98 408.00 142.00 Z"/>
</g>
<g fill="None" fill-opacity="0.0" stroke="#3F4EDC" stroke-opacity="0.13" stroke-width="0.3"><path d="
M 665.00 118.00 
C 664.77 117.84 665.13 116.46 665.00 116.00
C 664.08 113.73 662.93 111.52 663.00 109.00
C 657.97 109.22 655.74 105.82 653.00 103.00
C 648.34 102.78 646.76 96.38 641.00 98.00
C 642.43 99.49 646.15 99.55 645.00 103.00
C 649.83 103.29 653.66 103.94 654.00 109.00
C 659.97 106.87 657.43 115.92 663.00 113.00
C 661.63 115.94 664.16 116.91 665.00 118.00 Z"/>
</g>
<g fill="None" fill-opacity="0.0" stroke="#3F4EDC" stroke-opacity="0.27" stroke-width="0.3"><path d="
M 665.00 118.00 
C 670.05 121.47 667.27 127.09 668.00 133.00
C 668.76 125.37 669.39 122.40 665.00 116.00
C 665.13 116.46 664.77 117.84 665.00 118.00 Z"/>
</g>
<g fill="None" fill-opacity="0.0" stroke="#3F4EDC" stroke-opacity="0.89" stroke-width="0.3"><path d="
M 397.00 147.00 
C 400.44 144.80 404.09 142.82 408.00 142.00
C 412.19 140.45 416.52 137.97 421.00 137.00
C 415.65 134.28 410.16 140.70 406.00 136.00
C 407.47 144.49 393.21 141.99 390.00 148.00
C 392.46 146.95 395.10 147.60 397.00 147.00 Z"/>
</g>
<g fill="None" fill-opacity="0.0" stroke="#3F4EDC" stroke-opacity="0.56" stroke-width="0.3"><path d="
M 665.00 148.00 
C 665.44 150.20 664.04 153.55 666.00 155.00
C 667.36 150.69 669.47 142.96 669.00 136.00
C 666.44 138.93 665.80 143.77 665.00 148.00 Z"/>
</g>
<g fill="None" fill-opacity="0.0" stroke="#3F4EDC" stroke-opacity="0.61" stroke-width="0.3"><path d="
M 308.00 181.00 
C 310.00 181.00 312.00 181.00 314.00 181.00
C 318.59 174.57 328.53 173.63 335.78 171.78 C 343.03 169.93 348.31 165.02 355.00 162.00
C 342.69 167.46 323.44 169.54 314.00 180.00
C 311.79 179.33 309.57 180.50 308.00 181.00 Z"/>
</g>
<g fill="None" fill-opacity="0.0" stroke="#3F4EDC" stroke-opacity="0.00" stroke-width="0.3"><path d="
M 912.00 714.00 
C 914.51 692.72 917.04 672.97 920.00 652.00 C 922.96 631.03 923.39 609.46 928.00 589.00
C 931.56 573.21 930.40 556.16 935.00 541.00
C 937.23 533.65 935.06 525.45 937.00 518.00 C 938.94 510.55 941.00 504.12 941.00 496.00
C 943.62 481.89 943.65 465.21 945.01 451.01 C 946.37 436.81 951.08 422.22 951.22 408.22 C 951.36 394.22 957.50 379.16 956.78 366.22 C 956.06 353.28 951.10 339.67 943.70 330.30 C 936.31 320.93 925.35 316.76 916.77 309.23 C 908.19 301.71 898.50 294.49 889.70 287.30 C 880.90 280.11 871.78 273.87 863.25 265.75 C 854.72 257.62 843.70 253.88 834.75 245.25 C 825.80 236.61 815.73 232.95 807.90 224.10 C 800.08 215.25 790.93 210.89 780.74 202.26 C 770.56 193.63 763.47 193.07 753.08 181.92 C 742.70 170.76 730.75 179.87 731.00 195.00 C 731.25 210.13 725.98 221.79 724.93 235.93 C 723.87 250.07 721.51 265.55 720.99 279.99 C 720.47 294.43 712.85 306.59 713.33 321.33 C 713.81 336.07 711.13 350.91 709.00 365.00 C 706.87 379.08 704.16 393.81 703.00 408.00 C 701.84 422.19 698.77 435.85 697.20 449.75 C 695.63 463.66 696.31 478.93 692.78 492.78 C 689.25 506.62 689.39 520.85 686.99 534.99 C 684.60 549.13 682.61 563.05 682.00 577.00 C 681.39 590.95 676.99 604.18 675.33 618.33 C 673.67 632.48 672.03 647.80 670.00 662.00 C 667.97 676.20 665.12 690.33 665.00 705.00
C 671.76 710.67 680.20 713.28 685.97 719.03 C 691.74 724.77 704.64 727.65 704.00 738.00
C 714.13 742.54 721.84 750.02 730.77 757.23 C 739.70 764.44 747.70 769.81 756.92 777.08 C 766.13 784.36 773.48 789.27 782.77 796.23 C 792.06 803.19 799.97 807.91 807.75 817.25 C 815.54 826.58 827.71 825.78 837.75 819.75 C 847.80 813.72 859.75 811.02 869.99 805.99 C 880.23 800.97 888.60 795.31 894.90 785.90 C 901.20 776.48 907.43 765.08 907.00 752.00 C 906.57 738.92 909.10 726.06 912.00 714.00 Z"/>
</g>
<g fill="None" fill-opacity="0.0" stroke="#3F4EDC" stroke-opacity="0.44" stroke-width="0.3"><path d="
M 546.00 321.00 
C 553.01 320.26 558.81 317.86 566.00 316.00
C 568.26 309.57 579.21 310.35 584.75 306.61 C 590.30 302.87 599.38 297.82 607.00 297.00 C 614.62 296.19 619.18 289.03 627.08 287.08 C 634.99 285.14 642.63 281.51 649.00 277.00
C 649.52 273.74 649.41 269.61 651.00 267.00
C 650.84 260.46 653.78 255.14 654.00 248.00
C 649.13 254.63 649.24 264.46 649.00 273.00
C 641.97 281.05 632.45 282.14 623.67 287.67 C 614.90 293.21 601.45 293.59 595.00 301.00
C 585.98 300.66 576.69 305.53 571.00 311.00
C 561.30 309.68 554.23 316.88 546.00 321.00 Z"/>
</g>
<g fill="None" fill-opacity="0.0" stroke="#3F4EDC" stroke-opacity="0.80" stroke-width="0.3"><path d="
M 546.00 321.00 
C 528.32 322.87 514.05 337.41 497.00 341.00
C 502.80 342.46 508.63 339.47 515.00 340.00
C 510.18 334.62 526.75 338.60 525.00 332.00
C 535.82 333.71 537.84 323.07 546.78 322.78 C 555.72 322.48 563.85 319.82 571.00 317.00
C 573.58 313.66 567.01 316.33 568.00 313.00
C 574.65 313.45 579.78 310.48 586.00 311.00
C 584.48 308.05 586.69 308.19 588.00 306.00
C 591.19 307.44 599.29 305.43 592.00 304.00
C 600.37 302.18 608.25 296.30 616.00 298.00
C 615.49 290.36 626.26 295.88 627.00 288.00
C 641.49 288.94 651.38 282.24 651.00 267.00
C 649.41 269.61 649.52 273.74 649.00 277.00
C 642.63 281.51 634.99 285.14 627.08 287.08 C 619.18 289.03 614.62 296.19 607.00 297.00 C 599.38 297.82 590.30 302.87 584.75 306.61 C 579.21 310.35 568.26 309.57 566.00 316.00
C 558.81 317.86 553.01 320.26 546.00 321.00 Z"/>
</g>
<g fill="None" fill-opacity="0.0" stroke="#3F4EDC" stroke-opacity="0.15" stroke-width="0.3"><path d="
M 612.00 370.00 
C 615.23 369.77 620.31 371.50 624.00 369.00
C 623.02 367.89 621.68 367.72 623.00 366.00
C 618.30 366.36 616.11 368.50 612.00 370.00 Z"/>
</g>
<g fill="None" fill-opacity="0.0" stroke="#3F4EDC" stroke-opacity="0.01" stroke-width="0.3"><path d="
M 612.00 370.00 
C 591.93 377.32 567.54 385.00 548.00 396.00
C 546.50 397.79 545.00 402.62 539.00 400.00
C 539.33 405.15 532.31 404.91 528.00 405.00
C 515.71 411.60 500.81 414.17 488.22 419.22 C 475.64 424.28 462.24 429.90 450.22 435.22 C 438.21 440.55 422.92 445.28 412.22 451.22 C 401.52 457.16 381.57 458.44 378.00 471.00 C 374.43 483.56 394.26 493.11 402.77 500.23 C 411.28 507.35 424.88 515.54 432.78 524.22 C 440.67 532.91 454.56 539.13 463.75 547.25 C 472.94 555.36 484.23 565.25 495.00 568.00
C 502.68 576.90 513.97 584.35 522.00 592.00
C 528.87 596.43 535.52 599.85 541.03 605.97 C 546.55 612.08 556.91 612.21 558.00 621.00
C 562.95 618.58 566.62 627.56 569.25 628.75 C 571.89 629.93 577.32 630.17 577.00 635.00
C 579.45 636.45 582.43 635.92 585.00 637.00
C 583.33 641.47 590.22 641.94 595.00 641.00
C 597.11 617.46 603.41 595.06 605.00 571.00
C 605.00 562.08 606.16 553.93 606.00 545.00
C 609.97 545.34 608.93 541.40 609.00 538.00
C 610.96 539.45 609.56 542.80 610.00 545.00
C 610.00 545.02 611.00 545.00 611.00 545.00
C 613.86 525.32 615.41 504.83 618.00 485.00 C 620.59 465.17 624.97 444.02 625.00 424.00 C 625.04 403.98 636.90 386.24 631.00 366.00
C 628.34 366.15 625.65 365.80 623.00 366.00
C 621.68 367.72 623.02 367.89 624.00 369.00
C 620.31 371.50 615.23 369.77 612.00 370.00 Z"/>
</g>
<g fill="None" fill-opacity="0.0" stroke="#3F4EDC" stroke-opacity="0.18" stroke-width="0.3"><path d="
M 528.00 405.00 
C 532.31 404.91 539.33 405.15 539.00 400.00
C 545.00 402.62 546.50 397.79 548.00 396.00
C 541.30 399.77 534.40 401.80 528.00 405.00 Z"/>
</g>
<g fill="None" fill-opacity="0.0" stroke="#3F4EDC" stroke-opacity="0.85" stroke-width="0.3"><path d="
M 288.00 428.00 
C 291.76 430.49 295.85 425.73 300.00 428.00
C 300.43 425.16 308.71 418.52 308.00 419.00
C 300.60 421.28 295.67 427.03 288.00 428.00 Z"/>
</g>
<g fill="None" fill-opacity="0.0" stroke="#3F4EDC" stroke-opacity="0.87" stroke-width="0.3"><path d="
M 218.00 462.00 
C 217.65 458.11 211.66 457.12 208.23 460.23 C 204.80 463.34 197.39 460.29 197.00 467.00
C 200.05 468.43 199.68 462.14 201.00 464.00
C 201.16 466.85 205.05 465.89 208.00 466.00
C 206.50 463.90 209.50 462.96 210.00 461.00
C 212.34 464.39 215.38 460.29 218.00 462.00 Z"/>
</g>
<g fill="None" fill-opacity="0.0" stroke="#3F4EDC" stroke-opacity="0.86" stroke-width="0.3"><path d="
M 935.00 541.00 
C 934.79 542.42 935.71 543.56 937.00 544.00
C 937.00 538.00 937.00 532.00 937.00 526.00
C 943.99 526.00 940.30 518.57 941.20 514.25 C 942.09 509.93 941.49 501.04 941.00 496.00
C 941.00 504.12 938.94 510.55 937.00 518.00 C 935.06 525.45 937.23 533.65 935.00 541.00 Z"/>
</g>
<g fill="None" fill-opacity="0.0" stroke="#3F4EDC" stroke-opacity="0.00" stroke-width="0.3"><path d="
M 440.00 935.00 
C 443.25 936.60 450.92 941.10 453.00 946.00
C 462.65 948.02 468.71 957.03 480.00 956.00 C 491.29 954.97 503.45 957.95 513.00 952.00
C 528.31 947.05 542.81 937.62 558.33 932.33 C 573.85 927.04 589.18 919.27 604.77 913.77 C 620.36 908.27 634.38 900.54 649.75 894.75 C 665.13 888.97 680.74 882.06 695.78 875.78 C 710.82 869.50 728.54 868.11 739.00 855.00
C 730.19 846.01 719.82 838.26 710.08 829.92 C 700.34 821.58 688.88 815.30 679.25 806.75 C 669.62 798.20 658.50 791.47 648.75 783.25 C 639.00 775.03 628.91 768.34 618.75 760.25 C 608.58 752.17 598.19 744.46 588.10 736.90 C 578.01 729.34 568.80 720.54 558.25 712.75 C 547.70 704.97 539.38 697.27 528.75 689.25 C 518.12 681.23 509.16 675.02 499.25 666.75 C 489.33 658.49 479.27 650.27 468.89 643.11 C 458.52 635.94 447.71 626.86 438.00 623.00
C 433.73 618.50 429.60 612.70 424.23 608.77 C 418.86 604.84 413.70 599.45 408.00 599.00
C 408.87 592.36 397.97 594.58 400.00 589.00
C 382.48 578.80 366.37 563.80 350.00 551.00
C 339.16 542.52 328.03 535.37 318.00 526.00
C 305.51 516.70 292.43 499.48 275.74 506.74 C 259.06 514.01 244.94 519.42 229.22 526.22 C 213.50 533.02 195.41 537.61 180.08 544.08 C 164.75 550.55 150.39 558.83 135.00 565.00
C 130.16 579.13 132.15 595.41 128.93 609.93 C 125.70 624.45 126.13 637.47 122.32 651.32 C 118.51 665.17 124.94 679.66 130.08 691.92 C 135.22 704.18 146.39 709.06 155.70 716.30 C 165.02 723.53 174.70 730.11 183.75 738.25 C 192.81 746.38 203.93 752.27 212.70 760.30 C 221.46 768.34 231.18 775.59 240.75 782.25 C 250.32 788.91 259.51 797.44 268.30 804.70 C 277.09 811.95 288.38 818.55 297.77 826.23 C 307.16 833.92 317.31 840.48 326.10 847.90 C 334.89 855.32 343.71 863.85 354.08 869.92 C 364.45 875.98 373.49 884.66 382.31 892.69 C 391.12 900.73 403.61 904.43 411.25 913.75 C 418.89 923.08 432.31 927.31 440.00 935.00 Z"/>
</g>
<g fill="None" fill-opacity="0.0" stroke="#3F4EDC" stroke-opacity="0.71" stroke-width="0.3"><path d="
M 318.00 526.00 
C 328.03 535.37 339.16 542.52 350.00 551.00
C 348.10 548.73 344.92 542.67 340.77 541.23 C 336.62 539.80 332.62 532.94 329.70 531.31 C 326.77 529.67 318.05 522.12 318.00 526.00 Z"/>
</g>
<g fill="None" fill-opacity="0.0" stroke="#3F4EDC" stroke-opacity="0.16" stroke-width="0.3"><path d="
M 605.00 571.00 
C 606.60 562.73 610.33 553.90 610.00 545.00
C 609.56 542.80 610.96 539.45 609.00 538.00
C 608.93 541.40 609.97 545.34 606.00 545.00
C 606.16 553.93 605.00 562.08 605.00 571.00 Z"/>
</g>
<g fill="None" fill-opacity="0.0" stroke="#3F4EDC" stroke-opacity="0.45" stroke-width="0.3"><path d="
M 55.00 618.00 
C 58.69 592.17 63.87 565.87 66.00 539.00
C 59.59 562.65 55.49 593.62 55.00 618.00 Z"/>
</g>
<g fill="None" fill-opacity="0.0" stroke="#3F4EDC" stroke-opacity="0.35" stroke-width="0.3"><path d="
M 605.00 571.00 
C 603.41 595.06 597.11 617.46 595.00 641.00
C 590.22 641.94 583.33 641.47 585.00 637.00
C 582.43 635.92 579.45 636.45 577.00 635.00
C 577.32 630.17 571.89 629.93 569.25 628.75 C 566.62 627.56 562.95 618.58 558.00 621.00
C 556.91 612.21 546.55 612.08 541.03 605.97 C 535.52 599.85 528.87 596.43 522.00 592.00
C 529.04 596.95 534.84 602.83 541.75 607.25 C 548.67 611.66 551.86 622.04 561.00 623.00
C 566.03 633.46 580.97 637.11 587.00 647.00
C 590.09 647.16 592.74 648.61 596.00 648.00
C 601.98 631.34 601.73 614.64 604.02 597.02 C 606.32 579.41 611.00 562.79 611.00 545.00
C 611.00 545.00 610.00 545.02 610.00 545.00
C 610.33 553.90 606.60 562.73 605.00 571.00 Z"/>
</g>
<g fill="None" fill-opacity="0.0" stroke="#3F4EDC" stroke-opacity="0.79" stroke-width="0.3"><path d="
M 912.00 714.00 
C 914.95 699.00 919.13 682.99 918.00 666.00
C 923.06 663.46 921.45 651.57 922.40 643.74 C 923.35 635.92 925.92 623.54 926.80 615.25 C 927.68 606.95 928.80 594.89 928.00 589.00
C 923.39 609.46 922.96 631.03 920.00 652.00 C 917.04 672.97 914.51 692.72 912.00 714.00 Z"/>
</g>
<g fill="None" fill-opacity="0.0" stroke="#3F4EDC" stroke-opacity="0.27" stroke-width="0.3"><path d="
M 76.00 739.00 
C 68.73 729.22 63.32 717.00 59.00 706.00
C 60.94 719.01 66.08 731.09 76.00 739.00 Z"/>
</g>
<g fill="None" fill-opacity="0.0" stroke="#3F4EDC" stroke-opacity="0.65" stroke-width="0.3"><path d="
M 977.00 745.00 
C 978.73 735.35 979.91 725.64 981.00 715.00
C 979.78 718.99 979.99 724.18 978.33 729.33 C 976.67 734.48 976.75 739.83 977.00 745.00 Z"/>
</g>
<g fill="None" fill-opacity="0.0" stroke="#3F4EDC" stroke-opacity="0.42" stroke-width="0.3"><path d="
M 760.00 928.00 
C 780.38 925.66 800.23 911.94 819.93 904.93 C 839.63 897.92 858.80 886.18 878.77 879.77 C 898.74 873.36 916.87 862.31 932.30 848.30 C 947.74 834.30 961.14 819.14 967.00 799.00
C 959.25 817.81 946.95 834.20 931.25 847.25 C 915.55 860.29 898.03 871.83 878.02 878.02 C 858.02 884.22 838.45 896.35 818.22 902.22 C 797.99 908.10 779.79 923.32 760.00 928.00 Z"/>
</g>
<g fill="None" fill-opacity="0.0" stroke="#3F4EDC" stroke-opacity="0.65" stroke-width="0.3"><path d="
M 324.00 937.00 
C 303.41 917.78 281.47 896.04 256.22 879.78 C 230.98 863.51 209.00 845.60 184.00 827.00
C 198.96 840.03 214.40 852.70 230.25 864.75 C 246.11 876.80 260.89 889.20 276.92 900.08 C 292.94 910.97 307.34 926.14 324.00 937.00 Z"/>
</g>
<g fill="None" fill-opacity="0.0" stroke="#3F4EDC" stroke-opacity="0.42" stroke-width="0.3"><path d="
M 440.00 935.00 
C 443.79 942.24 453.32 945.48 456.00 952.00
C 474.14 960.98 495.74 958.69 513.00 952.00
C 503.45 957.95 491.29 954.97 480.00 956.00 C 468.71 957.03 462.65 948.02 453.00 946.00
C 450.92 941.10 443.25 936.60 440.00 935.00 Z"/>
</g>
<g fill="None" fill-opacity="0.0" stroke="#3F4EDC" stroke-opacity="0.56" stroke-width="0.3"><path d="
M 507.00 1026.00 
C 506.33 1028.31 502.74 1025.80 502.00 1028.00
C 524.97 1025.79 543.85 1015.23 564.77 1008.77 C 585.69 1002.32 602.23 989.63 622.98 983.98 C 643.72 978.33 662.25 965.56 682.00 958.00
C 661.95 963.51 643.98 977.17 624.00 982.00 C 604.02 986.83 585.87 996.69 567.07 1005.07 C 548.27 1013.45 527.71 1023.43 507.00 1026.00 Z"/>
</g>
<g fill="#3F4EDC" fill-opacity="0.00" stroke="None">
<path d="
M 0.00 1032.00 
L 1080.00 1032.00
L 1080.00 0.00
L 0.00 0.00
L 0.00 1032.00
M 605.00 2.00 
C 606.61 2.22 608.16 2.86 610.00 3.00
C 632.53 4.66 657.93 15.30 675.25 29.75 C 692.56 44.21 710.34 55.50 726.00 71.00
C 746.57 91.38 773.60 106.32 796.23 124.77 C 818.86 143.22 843.99 159.75 866.68 179.32 C 889.37 198.89 913.78 212.84 937.70 233.30 C 961.61 253.77 983.68 265.68 1003.25 292.75 C 1022.82 319.82 1029.63 356.67 1025.02 392.02 C 1020.42 427.38 1013.85 463.90 1010.00 500.00 C 1006.16 536.10 999.90 571.25 995.01 606.01 C 990.11 640.77 984.55 680.43 981.00 715.00
C 979.91 725.64 978.73 735.35 977.00 745.00
C 977.87 763.12 971.91 782.14 967.00 799.00
C 961.14 819.14 947.74 834.30 932.30 848.30 C 916.87 862.31 898.74 873.36 878.77 879.77 C 858.80 886.18 839.63 897.92 819.93 904.93 C 800.23 911.94 780.38 925.66 760.00 928.00
C 732.68 934.46 708.78 950.63 682.00 958.00
C 662.25 965.56 643.72 978.33 622.98 983.98 C 602.23 989.63 585.69 1002.32 564.77 1008.77 C 543.85 1015.23 524.97 1025.79 502.00 1028.00
C 502.74 1025.80 506.33 1028.31 507.00 1026.00
C 469.30 1030.67 430.99 1018.50 402.75 996.25 C 374.52 973.99 353.03 955.92 324.00 937.00
C 307.34 926.14 292.94 910.97 276.92 900.08 C 260.89 889.20 246.11 876.80 230.25 864.75 C 214.40 852.70 198.96 840.03 184.00 827.00
C 165.20 813.02 147.35 798.58 128.92 784.08 C 110.48 769.58 90.00 757.82 76.00 739.00
C 66.08 731.09 60.94 719.01 59.00 706.00
C 47.46 676.60 54.39 648.69 55.00 618.00
C 55.49 593.62 59.59 562.65 66.00 539.00
C 69.95 489.21 81.00 440.30 87.00 391.00 C 92.99 341.69 98.97 295.50 107.00 248.00
C 111.47 221.56 125.36 198.81 145.25 180.25 C 165.13 161.69 190.78 154.07 215.22 143.22 C 239.67 132.38 267.10 124.99 291.69 113.69 C 316.29 102.40 341.25 91.54 366.68 81.68 C 392.11 71.82 416.68 61.26 442.07 51.07 C 467.47 40.88 492.07 29.68 518.08 20.08 C 544.08 10.47 575.38 -5.70 605.00 2.00 Z"/>
</g>
<g fill="#3F4EDC" fill-opacity="0.58" stroke="None">
<path d="
M 107.00 248.00 
C 111.79 232.21 118.42 212.62 129.92 199.92 C 141.42 187.22 151.18 174.33 167.23 166.23 C 183.28 158.13 201.28 154.06 217.03 145.03 C 232.77 135.99 248.80 134.07 264.68 125.68 C 280.56 117.29 300.95 113.35 316.00 105.00 C 331.05 96.65 351.39 95.95 365.75 85.75 C 380.10 75.54 400.45 75.02 415.03 66.03 C 429.62 57.04 447.11 49.96 464.02 44.02 C 480.94 38.09 499.40 31.63 514.00 24.00
C 518.66 21.57 524.17 20.31 529.00 18.00
C 538.02 11.69 553.99 6.13 565.22 4.22 C 576.46 2.31 592.06 0.27 605.00 2.00
C 575.38 -5.70 544.08 10.47 518.08 20.08 C 492.07 29.68 467.47 40.88 442.07 51.07 C 416.68 61.26 392.11 71.82 366.68 81.68 C 341.25 91.54 316.29 102.40 291.69 113.69 C 267.10 124.99 239.67 132.38 215.22 143.22 C 190.78 154.07 165.13 161.69 145.25 180.25 C 125.36 198.81 111.47 221.56 107.00 248.00 Z"/>
</g>
<g fill="#3F4EDC" fill-opacity="0.99" stroke="None">
<path d="
M 529.00 18.00 
C 524.29 21.30 518.48 22.71 514.00 24.00
C 499.40 31.63 480.94 38.09 464.02 44.02 C 447.11 49.96 429.62 57.04 415.03 66.03 C 400.45 75.02 380.10 75.54 365.75 85.75 C 351.39 95.95 331.05 96.65 316.00 105.00 C 300.95 113.35 280.56 117.29 264.68 125.68 C 248.80 134.07 232.77 135.99 217.03 145.03 C 201.28 154.06 183.28 158.13 167.23 166.23 C 151.18 174.33 141.42 187.22 129.92 199.92 C 118.42 212.62 111.79 232.21 107.00 248.00
C 98.97 295.50 92.99 341.69 87.00 391.00 C 81.00 440.30 69.95 489.21 66.00 539.00
C 63.87 565.87 58.69 592.17 55.00 618.00
C 54.39 648.69 47.46 676.60 59.00 706.00
C 63.32 717.00 68.73 729.22 76.00 739.00
C 90.00 757.82 110.48 769.58 128.92 784.08 C 147.35 798.58 165.20 813.02 184.00 827.00
C 209.00 845.60 230.98 863.51 256.22 879.78 C 281.47 896.04 303.41 917.78 324.00 937.00
C 353.03 955.92 374.52 973.99 402.75 996.25 C 430.99 1018.50 469.30 1030.67 507.00 1026.00
C 527.71 1023.43 548.27 1013.45 567.07 1005.07 C 585.87 996.69 604.02 986.83 624.00 982.00 C 643.98 977.17 661.95 963.51 682.00 958.00
C 708.78 950.63 732.68 934.46 760.00 928.00
C 779.79 923.32 797.99 908.10 818.22 902.22 C 838.45 896.35 858.02 884.22 878.02 878.02 C 898.03 871.83 915.55 860.29 931.25 847.25 C 946.95 834.20 959.25 817.81 967.00 799.00
C 971.91 782.14 977.87 763.12 977.00 745.00
C 976.75 739.83 976.67 734.48 978.33 729.33 C 979.99 724.18 979.78 718.99 981.00 715.00
C 984.55 680.43 990.11 640.77 995.01 606.01 C 999.90 571.25 1006.16 536.10 1010.00 500.00 C 1013.85 463.90 1020.42 427.38 1025.02 392.02 C 1029.63 356.67 1022.82 319.82 1003.25 292.75 C 983.68 265.68 961.61 253.77 937.70 233.30 C 913.78 212.84 889.37 198.89 866.68 179.32 C 843.99 159.75 818.86 143.22 796.23 124.77 C 773.60 106.32 746.57 91.38 726.00 71.00
C 688.79 43.88 655.20 12.28 610.00 3.00
C 608.16 2.86 606.61 2.22 605.00 2.00
C 592.06 0.27 576.46 2.31 565.22 4.22 C 553.99 6.13 538.02 11.69 529.00 18.00
M 669.00 135.00 
C 669.23 135.35 669.00 136.00 669.00 136.00
C 669.47 142.96 667.36 150.69 666.00 155.00
C 664.04 153.55 665.44 150.20 665.00 148.00
C 661.90 164.37 663.46 181.92 659.02 198.02 C 654.59 214.13 654.51 231.18 654.00 248.00
C 653.78 255.14 650.84 260.46 651.00 267.00
C 651.38 282.24 641.49 288.94 627.00 288.00
C 626.26 295.88 615.49 290.36 616.00 298.00
C 608.25 296.30 600.37 302.18 592.00 304.00
C 599.29 305.43 591.19 307.44 588.00 306.00
C 586.69 308.19 584.48 308.05 586.00 311.00
C 579.78 310.48 574.65 313.45 568.00 313.00
C 567.01 316.33 573.58 313.66 571.00 317.00
C 563.85 319.82 555.72 322.48 546.78 322.78 C 537.84 323.07 535.82 333.71 525.00 332.00
C 526.75 338.60 510.18 334.62 515.00 340.00
C 508.63 339.47 502.80 342.46 497.00 341.00
C 487.50 343.00 481.21 349.90 471.00 350.00
C 466.82 355.45 459.63 356.46 452.97 358.97 C 446.31 361.49 438.34 364.31 431.00 365.00
C 424.99 374.27 411.88 374.38 402.00 380.00 C 392.11 385.62 379.93 388.31 369.97 392.97 C 360.01 397.62 348.10 401.74 337.98 403.98 C 327.85 406.21 318.12 415.99 308.00 419.00
C 308.71 418.52 300.43 425.16 300.00 428.00
C 295.85 425.73 291.76 430.49 288.00 428.00
C 270.73 427.09 255.65 444.22 238.00 444.00
C 233.02 448.23 224.95 452.45 216.75 454.75 C 208.56 457.06 201.88 462.14 194.92 465.92 C 187.96 469.70 177.14 468.63 170.30 474.31 C 163.47 479.98 149.77 474.17 150.01 464.99 C 150.25 455.81 148.99 441.77 150.60 433.26 C 152.20 424.74 154.27 416.93 154.00 407.00 C 153.73 397.07 159.05 391.15 160.00 382.00 C 160.95 372.85 159.57 361.58 163.00 353.00 C 166.43 344.42 162.14 331.06 165.99 322.99 C 169.85 314.92 169.50 303.03 170.00 294.00 C 170.50 284.97 174.05 276.03 174.00 267.00 C 173.95 257.97 179.66 250.84 184.30 244.30 C 188.95 237.77 196.17 235.35 199.77 228.77 C 203.37 222.19 215.38 221.36 221.08 217.08 C 226.78 212.80 238.67 211.00 245.00 210.00
C 251.88 200.82 265.56 199.75 275.67 194.67 C 285.78 189.60 296.93 185.55 308.00 181.00
C 309.57 180.50 311.79 179.33 314.00 180.00
C 323.44 169.54 342.69 167.46 355.00 162.00
C 368.72 159.55 385.46 154.37 397.00 147.00
C 395.10 147.60 392.46 146.95 390.00 148.00
C 393.21 141.99 407.47 144.49 406.00 136.00
C 410.16 140.70 415.65 134.28 421.00 137.00
C 431.79 137.29 442.24 127.71 453.08 123.08 C 463.92 118.46 478.69 117.18 488.75 109.75 C 498.80 102.31 511.68 100.96 523.03 98.02 C 534.37 95.08 543.94 84.95 554.77 81.43 C 565.59 77.90 577.47 70.18 590.00 70.00 C 602.53 69.82 618.61 74.20 628.08 80.92 C 637.55 87.64 645.27 96.67 654.70 102.30 C 664.12 107.94 677.36 123.66 669.00 135.00
M 941.00 496.00 
C 941.49 501.04 942.09 509.93 941.20 514.25 C 940.30 518.57 943.99 526.00 937.00 526.00
C 937.00 532.00 937.00 538.00 937.00 544.00
C 935.71 543.56 934.79 542.42 935.00 541.00
C 930.40 556.16 931.56 573.21 928.00 589.00
C 928.80 594.89 927.68 606.95 926.80 615.25 C 925.92 623.54 923.35 635.92 922.40 643.74 C 921.45 651.57 923.06 663.46 918.00 666.00
C 919.13 682.99 914.95 699.00 912.00 714.00
C 909.10 726.06 906.57 738.92 907.00 752.00 C 907.43 765.08 901.20 776.48 894.90 785.90 C 888.60 795.31 880.23 800.97 869.99 805.99 C 859.75 811.02 847.80 813.72 837.75 819.75 C 827.71 825.78 815.54 826.58 807.75 817.25 C 799.97 807.91 792.06 803.19 782.77 796.23 C 773.48 789.27 766.13 784.36 756.92 777.08 C 747.70 769.81 739.70 764.44 730.77 757.23 C 721.84 750.02 714.13 742.54 704.00 738.00
C 704.64 727.65 691.74 724.77 685.97 719.03 C 680.20 713.28 671.76 710.67 665.00 705.00
C 665.12 690.33 667.97 676.20 670.00 662.00 C 672.03 647.80 673.67 632.48 675.33 618.33 C 676.99 604.18 681.39 590.95 682.00 577.00 C 682.61 563.05 684.60 549.13 686.99 534.99 C 689.39 520.85 689.25 506.62 692.78 492.78 C 696.31 478.93 695.63 463.66 697.20 449.75 C 698.77 435.85 701.84 422.19 703.00 408.00 C 704.16 393.81 706.87 379.08 709.00 365.00 C 711.13 350.91 713.81 336.07 713.33 321.33 C 712.85 306.59 720.47 294.43 720.99 279.99 C 721.51 265.55 723.87 250.07 724.93 235.93 C 725.98 221.79 731.25 210.13 731.00 195.00 C 730.75 179.87 742.70 170.76 753.08 181.92 C 763.47 193.07 770.56 193.63 780.74 202.26 C 790.93 210.89 800.08 215.25 807.90 224.10 C 815.73 232.95 825.80 236.61 834.75 245.25 C 843.70 253.88 854.72 257.62 863.25 265.75 C 871.78 273.87 880.90 280.11 889.70 287.30 C 898.50 294.49 908.19 301.71 916.77 309.23 C 925.35 316.76 936.31 320.93 943.70 330.30 C 951.10 339.67 956.06 353.28 956.78 366.22 C 957.50 379.16 951.36 394.22 951.22 408.22 C 951.08 422.22 946.37 436.81 945.01 451.01 C 943.65 465.21 943.62 481.89 941.00 496.00
M 611.00 545.00 
C 611.00 562.79 606.32 579.41 604.02 597.02 C 601.73 614.64 601.98 631.34 596.00 648.00
C 592.74 648.61 590.09 647.16 587.00 647.00
C 580.97 637.11 566.03 633.46 561.00 623.00
C 551.86 622.04 548.67 611.66 541.75 607.25 C 534.84 602.83 529.04 596.95 522.00 592.00
C 513.97 584.35 502.68 576.90 495.00 568.00
C 484.23 565.25 472.94 555.36 463.75 547.25 C 454.56 539.13 440.67 532.91 432.78 524.22 C 424.88 515.54 411.28 507.35 402.77 500.23 C 394.26 493.11 374.43 483.56 378.00 471.00 C 381.57 458.44 401.52 457.16 412.22 451.22 C 422.92 445.28 438.21 440.55 450.22 435.22 C 462.24 429.90 475.64 424.28 488.22 419.22 C 500.81 414.17 515.71 411.60 528.00 405.00
C 534.40 401.80 541.30 399.77 548.00 396.00
C 567.54 385.00 591.93 377.32 612.00 370.00
C 616.11 368.50 618.30 366.36 623.00 366.00
C 625.65 365.80 628.34 366.15 631.00 366.00
C 636.90 386.24 625.04 403.98 625.00 424.00 C 624.97 444.02 620.59 465.17 618.00 485.00 C 615.41 504.83 613.86 525.32 611.00 545.00
M 218.00 462.00 
C 215.38 460.29 212.34 464.39 210.00 461.00
C 209.50 462.96 206.50 463.90 208.00 466.00
C 205.05 465.89 201.16 466.85 201.00 464.00
C 199.68 462.14 200.05 468.43 197.00 467.00
C 197.39 460.29 204.80 463.34 208.23 460.23 C 211.66 457.12 217.65 458.11 218.00 462.00
M 318.00 526.00 
C 318.05 522.12 326.77 529.67 329.70 531.31 C 332.62 532.94 336.62 539.80 340.77 541.23 C 344.92 542.67 348.10 548.73 350.00 551.00
C 366.37 563.80 382.48 578.80 400.00 589.00
C 397.97 594.58 408.87 592.36 408.00 599.00
C 413.70 599.45 418.86 604.84 424.23 608.77 C 429.60 612.70 433.73 618.50 438.00 623.00
C 447.71 626.86 458.52 635.94 468.89 643.11 C 479.27 650.27 489.33 658.49 499.25 666.75 C 509.16 675.02 518.12 681.23 528.75 689.25 C 539.38 697.27 547.70 704.97 558.25 712.75 C 568.80 720.54 578.01 729.34 588.10 736.90 C 598.19 744.46 608.58 752.17 618.75 760.25 C 628.91 768.34 639.00 775.03 648.75 783.25 C 658.50 791.47 669.62 798.20 679.25 806.75 C 688.88 815.30 700.34 821.58 710.08 829.92 C 719.82 838.26 730.19 846.01 739.00 855.00
C 728.54 868.11 710.82 869.50 695.78 875.78 C 680.74 882.06 665.13 888.97 649.75 894.75 C 634.38 900.54 620.36 908.27 604.77 913.77 C 589.18 919.27 573.85 927.04 558.33 932.33 C 542.81 937.62 528.31 947.05 513.00 952.00
C 495.74 958.69 474.14 960.98 456.00 952.00
C 453.32 945.48 443.79 942.24 440.00 935.00
C 432.31 927.31 418.89 923.08 411.25 913.75 C 403.61 904.43 391.12 900.73 382.31 892.69 C 373.49 884.66 364.45 875.98 354.08 869.92 C 343.71 863.85 334.89 855.32 326.10 847.90 C 317.31 840.48 307.16 833.92 297.77 826.23 C 288.38 818.55 277.09 811.95 268.30 804.70 C 259.51 797.44 250.32 788.91 240.75 782.25 C 231.18 775.59 221.46 768.34 212.70 760.30 C 203.93 752.27 192.81 746.38 183.75 738.25 C 174.70 730.11 165.02 723.53 155.70 716.30 C 146.39 709.06 135.22 704.18 130.08 691.92 C 124.94 679.66 118.51 665.17 122.32 651.32 C 126.13 637.47 125.70 624.45 128.93 609.93 C 132.15 595.41 130.16 579.13 135.00 565.00
C 150.39 558.83 164.75 550.55 180.08 544.08 C 195.41 537.61 213.50 533.02 229.22 526.22 C 244.94 519.42 259.06 514.01 275.74 506.74 C 292.43 499.48 305.51 516.70 318.00 526.00 Z"/>
</g>
<g fill="#3F4EDC" fill-opacity="0.56" stroke="None">
<path d="
M 726.00 71.00 
C 710.34 55.50 692.56 44.21 675.25 29.75 C 657.93 15.30 632.53 4.66 610.00 3.00
C 655.20 12.28 688.79 43.88 726.00 71.00 Z"/>
</g>
<g fill="#3F4EDC" fill-opacity="0.82" stroke="None">
<path d="
M 514.00 24.00 
C 518.48 22.71 524.29 21.30 529.00 18.00
C 524.17 20.31 518.66 21.57 514.00 24.00 Z"/>
</g>
<g fill="#3F4EDC" fill-opacity="0.51" stroke="None">
<path d="
M 421.00 137.00 
C 416.52 137.97 412.19 140.45 408.00 142.00
C 422.34 138.98 437.89 134.67 450.22 127.22 C 462.55 119.77 477.23 120.04 490.02 112.02 C 502.82 104.01 517.46 104.37 531.08 97.08 C 544.69 89.79 555.07 85.60 567.74 78.74 C 580.41 71.88 598.79 71.57 614.00 75.00
C 615.21 80.25 620.60 78.33 625.00 79.00
C 632.65 88.28 644.40 94.40 653.00 103.00
C 655.74 105.82 657.97 109.22 663.00 109.00
C 662.93 111.52 664.08 113.73 665.00 116.00
C 669.39 122.40 668.76 125.37 668.00 133.00
C 668.19 134.58 668.29 133.93 669.00 135.00
C 677.36 123.66 664.12 107.94 654.70 102.30 C 645.27 96.67 637.55 87.64 628.08 80.92 C 618.61 74.20 602.53 69.82 590.00 70.00 C 577.47 70.18 565.59 77.90 554.77 81.43 C 543.94 84.95 534.37 95.08 523.03 98.02 C 511.68 100.96 498.80 102.31 488.75 109.75 C 478.69 117.18 463.92 118.46 453.08 123.08 C 442.24 127.71 431.79 137.29 421.00 137.00 Z"/>
</g>
<g fill="#3F4EDC" fill-opacity="0.01" stroke="None">
<path d="
M 408.00 142.00 
C 404.09 142.82 400.44 144.80 397.00 147.00
C 385.46 154.37 368.72 159.55 355.00 162.00
C 348.31 165.02 343.03 169.93 335.78 171.78 C 328.53 173.63 318.59 174.57 314.00 181.00
C 312.00 181.00 310.00 181.00 308.00 181.00
C 296.93 185.55 285.78 189.60 275.67 194.67 C 265.56 199.75 251.88 200.82 245.00 210.00
C 238.67 211.00 226.78 212.80 221.08 217.08 C 215.38 221.36 203.37 222.19 199.77 228.77 C 196.17 235.35 188.95 237.77 184.30 244.30 C 179.66 250.84 173.95 257.97 174.00 267.00 C 174.05 276.03 170.50 284.97 170.00 294.00 C 169.50 303.03 169.85 314.92 165.99 322.99 C 162.14 331.06 166.43 344.42 163.00 353.00 C 159.57 361.58 160.95 372.85 160.00 382.00 C 159.05 391.15 153.73 397.07 154.00 407.00 C 154.27 416.93 152.20 424.74 150.60 433.26 C 148.99 441.77 150.25 455.81 150.01 464.99 C 149.77 474.17 163.47 479.98 170.30 474.31 C 177.14 468.63 187.96 469.70 194.92 465.92 C 201.88 462.14 208.56 457.06 216.75 454.75 C 224.95 452.45 233.02 448.23 238.00 444.00
C 255.65 444.22 270.73 427.09 288.00 428.00
C 295.67 427.03 300.60 421.28 308.00 419.00
C 318.12 415.99 327.85 406.21 337.98 403.98 C 348.10 401.74 360.01 397.62 369.97 392.97 C 379.93 388.31 392.11 385.62 402.00 380.00 C 411.88 374.38 424.99 374.27 431.00 365.00
C 438.34 364.31 446.31 361.49 452.97 358.97 C 459.63 356.46 466.82 355.45 471.00 350.00
C 481.21 349.90 487.50 343.00 497.00 341.00
C 514.05 337.41 528.32 322.87 546.00 321.00
C 554.23 316.88 561.30 309.68 571.00 311.00
C 576.69 305.53 585.98 300.66 595.00 301.00
C 601.45 293.59 614.90 293.21 623.67 287.67 C 632.45 282.14 641.97 281.05 649.00 273.00
C 649.24 264.46 649.13 254.63 654.00 248.00
C 654.51 231.18 654.59 214.13 659.02 198.02 C 663.46 181.92 661.90 164.37 665.00 148.00
C 665.80 143.77 666.44 138.93 669.00 136.00
C 669.00 136.00 669.23 135.35 669.00 135.00
C 668.29 133.93 668.19 134.58 668.00 133.00
C 667.27 127.09 670.05 121.47 665.00 118.00
C 664.16 116.91 661.63 115.94 663.00 113.00
C 657.43 115.92 659.97 106.87 654.00 109.00
C 653.66 103.94 649.83 103.29 645.00 103.00
C 646.15 99.55 642.43 99.49 641.00 98.00
C 646.76 96.38 648.34 102.78 653.00 103.00
C 644.40 94.40 632.65 88.28 625.00 79.00
C 620.60 78.33 615.21 80.25 614.00 75.00
C 598.79 71.57 580.41 71.88 567.74 78.74 C 555.07 85.60 544.69 89.79 531.08 97.08 C 517.46 104.37 502.82 104.01 490.02 112.02 C 477.23 120.04 462.55 119.77 450.22 127.22 C 437.89 134.67 422.34 138.98 408.00 142.00 Z"/>
</g>
<g fill="#3F4EDC" fill-opacity="0.13" stroke="None">
<path d="
M 665.00 118.00 
C 664.77 117.84 665.13 116.46 665.00 116.00
C 664.08 113.73 662.93 111.52 663.00 109.00
C 657.97 109.22 655.74 105.82 653.00 103.00
C 648.34 102.78 646.76 96.38 641.00 98.00
C 642.43 99.49 646.15 99.55 645.00 103.00
C 649.83 103.29 653.66 103.94 654.00 109.00
C 659.97 106.87 657.43 115.92 663.00 113.00
C 661.63 115.94 664.16 116.91 665.00 118.00 Z"/>
</g>
<g fill="#3F4EDC" fill-opacity="0.27" stroke="None">
<path d="
M 665.00 118.00 
C 670.05 121.47 667.27 127.09 668.00 133.00
C 668.76 125.37 669.39 122.40 665.00 116.00
C 665.13 116.46 664.77 117.84 665.00 118.00 Z"/>
</g>
<g fill="#3F4EDC" fill-opacity="0.89" stroke="None">
<path d="
M 397.00 147.00 
C 400.44 144.80 404.09 142.82 408.00 142.00
C 412.19 140.45 416.52 137.97 421.00 137.00
C 415.65 134.28 410.16 140.70 406.00 136.00
C 407.47 144.49 393.21 141.99 390.00 148.00
C 392.46 146.95 395.10 147.60 397.00 147.00 Z"/>
</g>
<g fill="#3F4EDC" fill-opacity="0.56" stroke="None">
<path d="
M 665.00 148.00 
C 665.44 150.20 664.04 153.55 666.00 155.00
C 667.36 150.69 669.47 142.96 669.00 136.00
C 666.44 138.93 665.80 143.77 665.00 148.00 Z"/>
</g>
<g fill="#3F4EDC" fill-opacity="0.61" stroke="None">
<path d="
M 308.00 181.00 
C 310.00 181.00 312.00 181.00 314.00 181.00
C 318.59 174.57 328.53 173.63 335.78 171.78 C 343.03 169.93 348.31 165.02 355.00 162.00
C 342.69 167.46 323.44 169.54 314.00 180.00
C 311.79 179.33 309.57 180.50 308.00 181.00 Z"/>
</g>
<g fill="#3F4EDC" fill-opacity="0.00" stroke="None">
<path d="
M 912.00 714.00 
C 914.51 692.72 917.04 672.97 920.00 652.00 C 922.96 631.03 923.39 609.46 928.00 589.00
C 931.56 573.21 930.40 556.16 935.00 541.00
C 937.23 533.65 935.06 525.45 937.00 518.00 C 938.94 510.55 941.00 504.12 941.00 496.00
C 943.62 481.89 943.65 465.21 945.01 451.01 C 946.37 436.81 951.08 422.22 951.22 408.22 C 951.36 394.22 957.50 379.16 956.78 366.22 C 956.06 353.28 951.10 339.67 943.70 330.30 C 936.31 320.93 925.35 316.76 916.77 309.23 C 908.19 301.71 898.50 294.49 889.70 287.30 C 880.90 280.11 871.78 273.87 863.25 265.75 C 854.72 257.62 843.70 253.88 834.75 245.25 C 825.80 236.61 815.73 232.95 807.90 224.10 C 800.08 215.25 790.93 210.89 780.74 202.26 C 770.56 193.63 763.47 193.07 753.08 181.92 C 742.70 170.76 730.75 179.87 731.00 195.00 C 731.25 210.13 725.98 221.79 724.93 235.93 C 723.87 250.07 721.51 265.55 720.99 279.99 C 720.47 294.43 712.85 306.59 713.33 321.33 C 713.81 336.07 711.13 350.91 709.00 365.00 C 706.87 379.08 704.16 393.81 703.00 408.00 C 701.84 422.19 698.77 435.85 697.20 449.75 C 695.63 463.66 696.31 478.93 692.78 492.78 C 689.25 506.62 689.39 520.85 686.99 534.99 C 684.60 549.13 682.61 563.05 682.00 577.00 C 681.39 590.95 676.99 604.18 675.33 618.33 C 673.67 632.48 672.03 647.80 670.00 662.00 C 667.97 676.20 665.12 690.33 665.00 705.00
C 671.76 710.67 680.20 713.28 685.97 719.03 C 691.74 724.77 704.64 727.65 704.00 738.00
C 714.13 742.54 721.84 750.02 730.77 757.23 C 739.70 764.44 747.70 769.81 756.92 777.08 C 766.13 784.36 773.48 789.27 782.77 796.23 C 792.06 803.19 799.97 807.91 807.75 817.25 C 815.54 826.58 827.71 825.78 837.75 819.75 C 847.80 813.72 859.75 811.02 869.99 805.99 C 880.23 800.97 888.60 795.31 894.90 785.90 C 901.20 776.48 907.43 765.08 907.00 752.00 C 906.57 738.92 909.10 726.06 912.00 714.00 Z"/>
</g>
<g fill="#3F4EDC" fill-opacity="0.44" stroke="None">
<path d="
M 546.00 321.00 
C 553.01 320.26 558.81 317.86 566.00 316.00
C 568.26 309.57 579.21 310.35 584.75 306.61 C 590.30 302.87 599.38 297.82 607.00 297.00 C 614.62 296.19 619.18 289.03 627.08 287.08 C 634.99 285.14 642.63 281.51 649.00 277.00
C 649.52 273.74 649.41 269.61 651.00 267.00
C 650.84 260.46 653.78 255.14 654.00 248.00
C 649.13 254.63 649.24 264.46 649.00 273.00
C 641.97 281.05 632.45 282.14 623.67 287.67 C 614.90 293.21 601.45 293.59 595.00 301.00
C 585.98 300.66 576.69 305.53 571.00 311.00
C 561.30 309.68 554.23 316.88 546.00 321.00 Z"/>
</g>
<g fill="#3F4EDC" fill-opacity="0.80" stroke="None">
<path d="
M 546.00 321.00 
C 528.32 322.87 514.05 337.41 497.00 341.00
C 502.80 342.46 508.63 339.47 515.00 340.00
C 510.18 334.62 526.75 338.60 525.00 332.00
C 535.82 333.71 537.84 323.07 546.78 322.78 C 555.72 322.48 563.85 319.82 571.00 317.00
C 573.58 313.66 567.01 316.33 568.00 313.00
C 574.65 313.45 579.78 310.48 586.00 311.00
C 584.48 308.05 586.69 308.19 588.00 306.00
C 591.19 307.44 599.29 305.43 592.00 304.00
C 600.37 302.18 608.25 296.30 616.00 298.00
C 615.49 290.36 626.26 295.88 627.00 288.00
C 641.49 288.94 651.38 282.24 651.00 267.00
C 649.41 269.61 649.52 273.74 649.00 277.00
C 642.63 281.51 634.99 285.14 627.08 287.08 C 619.18 289.03 614.62 296.19 607.00 297.00 C 599.38 297.82 590.30 302.87 584.75 306.61 C 579.21 310.35 568.26 309.57 566.00 316.00
C 558.81 317.86 553.01 320.26 546.00 321.00 Z"/>
</g>
<g fill="#3F4EDC" fill-opacity="0.15" stroke="None">
<path d="
M 612.00 370.00 
C 615.23 369.77 620.31 371.50 624.00 369.00
C 623.02 367.89 621.68 367.72 623.00 366.00
C 618.30 366.36 616.11 368.50 612.00 370.00 Z"/>
</g>
<g fill="#3F4EDC" fill-opacity="0.01" stroke="None">
<path d="
M 612.00 370.00 
C 591.93 377.32 567.54 385.00 548.00 396.00
C 546.50 397.79 545.00 402.62 539.00 400.00
C 539.33 405.15 532.31 404.91 528.00 405.00
C 515.71 411.60 500.81 414.17 488.22 419.22 C 475.64 424.28 462.24 429.90 450.22 435.22 C 438.21 440.55 422.92 445.28 412.22 451.22 C 401.52 457.16 381.57 458.44 378.00 471.00 C 374.43 483.56 394.26 493.11 402.77 500.23 C 411.28 507.35 424.88 515.54 432.78 524.22 C 440.67 532.91 454.56 539.13 463.75 547.25 C 472.94 555.36 484.23 565.25 495.00 568.00
C 502.68 576.90 513.97 584.35 522.00 592.00
C 528.87 596.43 535.52 599.85 541.03 605.97 C 546.55 612.08 556.91 612.21 558.00 621.00
C 562.95 618.58 566.62 627.56 569.25 628.75 C 571.89 629.93 577.32 630.17 577.00 635.00
C 579.45 636.45 582.43 635.92 585.00 637.00
C 583.33 641.47 590.22 641.94 595.00 641.00
C 597.11 617.46 603.41 595.06 605.00 571.00
C 605.00 562.08 606.16 553.93 606.00 545.00
C 609.97 545.34 608.93 541.40 609.00 538.00
C 610.96 539.45 609.56 542.80 610.00 545.00
C 610.00 545.02 611.00 545.00 611.00 545.00
C 613.86 525.32 615.41 504.83 618.00 485.00 C 620.59 465.17 624.97 444.02 625.00 424.00 C 625.04 403.98 636.90 386.24 631.00 366.00
C 628.34 366.15 625.65 365.80 623.00 366.00
C 621.68 367.72 623.02 367.89 624.00 369.00
C 620.31 371.50 615.23 369.77 612.00 370.00 Z"/>
</g>
<g fill="#3F4EDC" fill-opacity="0.18" stroke="None">
<path d="
M 528.00 405.00 
C 532.31 404.91 539.33 405.15 539.00 400.00
C 545.00 402.62 546.50 397.79 548.00 396.00
C 541.30 399.77 534.40 401.80 528.00 405.00 Z"/>
</g>
<g fill="#3F4EDC" fill-opacity="0.85" stroke="None">
<path d="
M 288.00 428.00 
C 291.76 430.49 295.85 425.73 300.00 428.00
C 300.43 425.16 308.71 418.52 308.00 419.00
C 300.60 421.28 295.67 427.03 288.00 428.00 Z"/>
</g>
<g fill="#3F4EDC" fill-opacity="0.87" stroke="None">
<path d="
M 218.00 462.00 
C 217.65 458.11 211.66 457.12 208.23 460.23 C 204.80 463.34 197.39 460.29 197.00 467.00
C 200.05 468.43 199.68 462.14 201.00 464.00
C 201.16 466.85 205.05 465.89 208.00 466.00
C 206.50 463.90 209.50 462.96 210.00 461.00
C 212.34 464.39 215.38 460.29 218.00 462.00 Z"/>
</g>
<g fill="#3F4EDC" fill-opacity="0.86" stroke="None">
<path d="
M 935.00 541.00 
C 934.79 542.42 935.71 543.56 937.00 544.00
C 937.00 538.00 937.00 532.00 937.00 526.00
C 943.99 526.00 940.30 518.57 941.20 514.25 C 942.09 509.93 941.49 501.04 941.00 496.00
C 941.00 504.12 938.94 510.55 937.00 518.00 C 935.06 525.45 937.23 533.65 935.00 541.00 Z"/>
</g>
<g fill="#3F4EDC" fill-opacity="0.00" stroke="None">
<path d="
M 440.00 935.00 
C 443.25 936.60 450.92 941.10 453.00 946.00
C 462.65 948.02 468.71 957.03 480.00 956.00 C 491.29 954.97 503.45 957.95 513.00 952.00
C 528.31 947.05 542.81 937.62 558.33 932.33 C 573.85 927.04 589.18 919.27 604.77 913.77 C 620.36 908.27 634.38 900.54 649.75 894.75 C 665.13 888.97 680.74 882.06 695.78 875.78 C 710.82 869.50 728.54 868.11 739.00 855.00
C 730.19 846.01 719.82 838.26 710.08 829.92 C 700.34 821.58 688.88 815.30 679.25 806.75 C 669.62 798.20 658.50 791.47 648.75 783.25 C 639.00 775.03 628.91 768.34 618.75 760.25 C 608.58 752.17 598.19 744.46 588.10 736.90 C 578.01 729.34 568.80 720.54 558.25 712.75 C 547.70 704.97 539.38 697.27 528.75 689.25 C 518.12 681.23 509.16 675.02 499.25 666.75 C 489.33 658.49 479.27 650.27 468.89 643.11 C 458.52 635.94 447.71 626.86 438.00 623.00
C 433.73 618.50 429.60 612.70 424.23 608.77 C 418.86 604.84 413.70 599.45 408.00 599.00
C 408.87 592.36 397.97 594.58 400.00 589.00
C 382.48 578.80 366.37 563.80 350.00 551.00
C 339.16 542.52 328.03 535.37 318.00 526.00
C 305.51 516.70 292.43 499.48 275.74 506.74 C 259.06 514.01 244.94 519.42 229.22 526.22 C 213.50 533.02 195.41 537.61 180.08 544.08 C 164.75 550.55 150.39 558.83 135.00 565.00
C 130.16 579.13 132.15 595.41 128.93 609.93 C 125.70 624.45 126.13 637.47 122.32 651.32 C 118.51 665.17 124.94 679.66 130.08 691.92 C 135.22 704.18 146.39 709.06 155.70 716.30 C 165.02 723.53 174.70 730.11 183.75 738.25 C 192.81 746.38 203.93 752.27 212.70 760.30 C 221.46 768.34 231.18 775.59 240.75 782.25 C 250.32 788.91 259.51 797.44 268.30 804.70 C 277.09 811.95 288.38 818.55 297.77 826.23 C 307.16 833.92 317.31 840.48 326.10 847.90 C 334.89 855.32 343.71 863.85 354.08 869.92 C 364.45 875.98 373.49 884.66 382.31 892.69 C 391.12 900.73 403.61 904.43 411.25 913.75 C 418.89 923.08 432.31 927.31 440.00 935.00 Z"/>
</g>
<g fill="#3F4EDC" fill-opacity="0.71" stroke="None">
<path d="
M 318.00 526.00 
C 328.03 535.37 339.16 542.52 350.00 551.00
C 348.10 548.73 344.92 542.67 340.77 541.23 C 336.62 539.80 332.62 532.94 329.70 531.31 C 326.77 529.67 318.05 522.12 318.00 526.00 Z"/>
</g>
<g fill="#3F4EDC" fill-opacity="0.16" stroke="None">
<path d="
M 605.00 571.00 
C 606.60 562.73 610.33 553.90 610.00 545.00
C 609.56 542.80 610.96 539.45 609.00 538.00
C 608.93 541.40 609.97 545.34 606.00 545.00
C 606.16 553.93 605.00 562.08 605.00 571.00 Z"/>
</g>
<g fill="#3F4EDC" fill-opacity="0.45" stroke="None">
<path d="
M 55.00 618.00 
C 58.69 592.17 63.87 565.87 66.00 539.00
C 59.59 562.65 55.49 593.62 55.00 618.00 Z"/>
</g>
<g fill="#3F4EDC" fill-opacity="0.35" stroke="None">
<path d="
M 605.00 571.00 
C 603.41 595.06 597.11 617.46 595.00 641.00
C 590.22 641.94 583.33 641.47 585.00 637.00
C 582.43 635.92 579.45 636.45 577.00 635.00
C 577.32 630.17 571.89 629.93 569.25 628.75 C 566.62 627.56 562.95 618.58 558.00 621.00
C 556.91 612.21 546.55 612.08 541.03 605.97 C 535.52 599.85 528.87 596.43 522.00 592.00
C 529.04 596.95 534.84 602.83 541.75 607.25 C 548.67 611.66 551.86 622.04 561.00 623.00
C 566.03 633.46 580.97 637.11 587.00 647.00
C 590.09 647.16 592.74 648.61 596.00 648.00
C 601.98 631.34 601.73 614.64 604.02 597.02 C 606.32 579.41 611.00 562.79 611.00 545.00
C 611.00 545.00 610.00 545.02 610.00 545.00
C 610.33 553.90 606.60 562.73 605.00 571.00 Z"/>
</g>
<g fill="#3F4EDC" fill-opacity="0.79" stroke="None">
<path d="
M 912.00 714.00 
C 914.95 699.00 919.13 682.99 918.00 666.00
C 923.06 663.46 921.45 651.57 922.40 643.74 C 923.35 635.92 925.92 623.54 926.80 615.25 C 927.68 606.95 928.80 594.89 928.00 589.00
C 923.39 609.46 922.96 631.03 920.00 652.00 C 917.04 672.97 914.51 692.72 912.00 714.00 Z"/>
</g>
<g fill="#3F4EDC" fill-opacity="0.27" stroke="None">
<path d="
M 76.00 739.00 
C 68.73 729.22 63.32 717.00 59.00 706.00
C 60.94 719.01 66.08 731.09 76.00 739.00 Z"/>
</g>
<g fill="#3F4EDC" fill-opacity="0.65" stroke="None">
<path d="
M 977.00 745.00 
C 978.73 735.35 979.91 725.64 981.00 715.00
C 979.78 718.99 979.99 724.18 978.33 729.33 C 976.67 734.48 976.75 739.83 977.00 745.00 Z"/>
</g>
<g fill="#3F4EDC" fill-opacity="0.42" stroke="None">
<path d="
M 760.00 928.00 
C 780.38 925.66 800.23 911.94 819.93 904.93 C 839.63 897.92 858.80 886.18 878.77 879.77 C 898.74 873.36 916.87 862.31 932.30 848.30 C 947.74 834.30 961.14 819.14 967.00 799.00
C 959.25 817.81 946.95 834.20 931.25 847.25 C 915.55 860.29 898.03 871.83 878.02 878.02 C 858.02 884.22 838.45 896.35 818.22 902.22 C 797.99 908.10 779.79 923.32 760.00 928.00 Z"/>
</g>
<g fill="#3F4EDC" fill-opacity="0.65" stroke="None">
<path d="
M 324.00 937.00 
C 303.41 917.78 281.47 896.04 256.22 879.78 C 230.98 863.51 209.00 845.60 184.00 827.00
C 198.96 840.03 214.40 852.70 230.25 864.75 C 246.11 876.80 260.89 889.20 276.92 900.08 C 292.94 910.97 307.34 926.14 324.00 937.00 Z"/>
</g>
<g fill="#3F4EDC" fill-opacity="0.42" stroke="None">
<path d="
M 440.00 935.00 
C 443.79 942.24 453.32 945.48 456.00 952.00
C 474.14 960.98 495.74 958.69 513.00 952.00
C 503.45 957.95 491.29 954.97 480.00 956.00 C 468.71 957.03 462.65 948.02 453.00 946.00
C 450.92 941.10 443.25 936.60 440.00 935.00 Z"/>
</g>
<g fill="#3F4EDC" fill-opacity="0.56" stroke="None">
<path d="
M 507.00 1026.00 
C 506.33 1028.31 502.74 1025.80 502.00 1028.00
C 524.97 1025.79 543.85 1015.23 564.77 1008.77 C 585.69 1002.32 602.23 989.63 622.98 983.98 C 643.72 978.33 662.25 965.56 682.00 958.00
C 661.95 963.51 643.98 977.17 624.00 982.00 C 604.02 986.83 585.87 996.69 567.07 1005.07 C 548.27 1013.45 527.71 1023.43 507.00 1026.00 Z"/>
</g>
</svg>